<?xml version="1.0" encoding="UTF-8" standalone="no"?>
<!-- Generator: Adobe Illustrator 18.0.0, SVG Export Plug-In . SVG Version: 6.00 Build 0)  -->

<svg
   version="1.1"
   id="Capa_1"
   x="0px"
   y="0px"
   viewBox="0 0 103.3905 103.3905"
   xml:space="preserve"
   width="128"
   height="128"
   inkscape:version="1.3.2 (091e20ef0f, 2023-11-25)"
   sodipodi:docname="input-field.svg"
   inkscape:export-filename="/var/svn-repos/wp-multi-step-checkout/assets/icon-128x128.png"
   inkscape:export-xdpi="90"
   inkscape:export-ydpi="90"
   xmlns:inkscape="http://www.inkscape.org/namespaces/inkscape"
   xmlns:sodipodi="http://sodipodi.sourceforge.net/DTD/sodipodi-0.dtd"
   xmlns:xlink="http://www.w3.org/1999/xlink"
   xmlns="http://www.w3.org/2000/svg"
   xmlns:svg="http://www.w3.org/2000/svg"
   xmlns:rdf="http://www.w3.org/1999/02/22-rdf-syntax-ns#"
   xmlns:cc="http://creativecommons.org/ns#"
   xmlns:dc="http://purl.org/dc/elements/1.1/"><metadata
     id="metadata5634"><rdf:RDF><cc:Work
         rdf:about=""><dc:format>image/svg+xml</dc:format><dc:type
           rdf:resource="http://purl.org/dc/dcmitype/StillImage" /></cc:Work></rdf:RDF></metadata><defs
     id="defs5632"><linearGradient
       id="linearGradient4690"><stop
         style="stop-color:#cd3c4d;stop-opacity:1;"
         offset="0"
         id="stop4692" /><stop
         style="stop-color:#bc2033;stop-opacity:1;"
         offset="1"
         id="stop4694" /></linearGradient><linearGradient
       inkscape:collect="always"
       xlink:href="#linearGradient4690"
       id="linearGradient4716"
       x1="-1.4648438e-06"
       y1="51.69525"
       x2="103.3905"
       y2="51.69525"
       gradientUnits="userSpaceOnUse"
       gradientTransform="matrix(0.99636349,0,0,0.99636345,0.1879906,0.18798734)" /></defs><sodipodi:namedview
     pagecolor="#ffffff"
     bordercolor="#666666"
     borderopacity="1"
     objecttolerance="10"
     gridtolerance="10"
     guidetolerance="10"
     inkscape:pageopacity="0"
     inkscape:pageshadow="2"
     inkscape:window-width="2558"
     inkscape:window-height="1400"
     id="namedview5630"
     showgrid="false"
     inkscape:zoom="6.9502622"
     inkscape:cx="74.097924"
     inkscape:cy="65.033518"
     inkscape:window-x="0"
     inkscape:window-y="38"
     inkscape:window-maximized="1"
     inkscape:current-layer="Capa_1"
     inkscape:showpageshadow="2"
     inkscape:pagecheckerboard="0"
     inkscape:deskcolor="#d1d1d1" /><g
     id="g5600"
     transform="translate(0,-310.1715)" /><g
     id="g5602"
     transform="translate(0,-310.1715)" /><g
     id="g5604"
     transform="translate(0,-310.1715)" /><g
     id="g5606"
     transform="translate(0,-310.1715)" /><g
     id="g5608"
     transform="translate(0,-310.1715)" /><g
     id="g5610"
     transform="translate(0,-310.1715)" /><g
     id="g5612"
     transform="translate(0,-310.1715)" /><g
     id="g5614"
     transform="translate(0,-310.1715)" /><g
     id="g5616"
     transform="translate(0,-310.1715)" /><g
     id="g5618"
     transform="translate(0,-310.1715)" /><g
     id="g5620"
     transform="translate(0,-310.1715)" /><g
     id="g5622"
     transform="translate(0,-310.1715)" /><g
     id="g5624"
     transform="translate(0,-310.1715)" /><g
     id="g5626"
     transform="translate(0,-310.1715)" /><g
     id="g5628"
     transform="translate(0,-310.1715)" /><g
     transform="matrix(0.19763007,0,0,0.19763007,-49.412332,16.862342)"
     id="g5908"
     style="fill:#0000ff" /><g
     transform="matrix(0.19763007,0,0,0.19763007,-49.412332,16.862342)"
     id="g5910"
     style="fill:#0000ff" /><g
     transform="matrix(0.19763007,0,0,0.19763007,-49.412332,16.862342)"
     id="g5912"
     style="fill:#0000ff" /><g
     transform="matrix(0.19763007,0,0,0.19763007,-49.412332,16.862342)"
     id="g5914"
     style="fill:#0000ff" /><g
     transform="matrix(0.19763007,0,0,0.19763007,-49.412332,16.862342)"
     id="g5916"
     style="fill:#0000ff" /><g
     transform="matrix(0.19763007,0,0,0.19763007,-49.412332,16.862342)"
     id="g5918"
     style="fill:#0000ff" /><g
     transform="matrix(0.19763007,0,0,0.19763007,-49.412332,16.862342)"
     id="g5920"
     style="fill:#0000ff" /><g
     transform="matrix(0.19763007,0,0,0.19763007,-49.412332,16.862342)"
     id="g5922"
     style="fill:#0000ff" /><g
     transform="matrix(0.19763007,0,0,0.19763007,-49.412332,16.862342)"
     id="g5924"
     style="fill:#0000ff" /><g
     transform="matrix(0.19763007,0,0,0.19763007,-49.412332,16.862342)"
     id="g5926"
     style="fill:#0000ff" /><g
     transform="matrix(0.19763007,0,0,0.19763007,-49.412332,16.862342)"
     id="g5928"
     style="fill:#0000ff" /><g
     transform="matrix(0.19763007,0,0,0.19763007,-49.412332,16.862342)"
     id="g5930"
     style="fill:#0000ff" /><g
     transform="matrix(0.19763007,0,0,0.19763007,-49.412332,16.862342)"
     id="g5932"
     style="fill:#0000ff" /><g
     transform="matrix(0.19763007,0,0,0.19763007,-49.412332,16.862342)"
     id="g5934"
     style="fill:#0000ff" /><g
     transform="matrix(0.19763007,0,0,0.19763007,-49.412332,16.862342)"
     id="g5936"
     style="fill:#0000ff" /><rect
     style="color:#000000;display:inline;overflow:visible;visibility:visible;fill:url(#linearGradient4716);fill-opacity:1;fill-rule:nonzero;stroke:#000000;stroke-width:0;stroke-linecap:square;stroke-linejoin:round;stroke-miterlimit:4;stroke-dasharray:none;stroke-dashoffset:0;stroke-opacity:1;marker:none;enable-background:accumulate"
     id="rect3380"
     width="103.3905"
     height="103.3905"
     x="-1.4648438e-06"
     y="-1.5039444e-06" /><g
     id="g3088"
     style="stroke-width:0.8597"
     transform="matrix(0.08839008,0,0,0.08839008,14.205683,37.662166)"><g
       id="g3090"
       style="stroke-width:0.8597"><path
         id="path3092"
         d="M 187.57,359.458 H 548.465 L 612.321,131.524 H 125.088 L 109.468,69.042 C 101.595,37.801 74.353,15.683 42.987,15.683 H 0 V 41.8 h 42.987 c 19.494,0 36.489,12.996 41.738,32.616 l 69.105,270.421 c -14.246,10.247 -23.618,26.992 -23.618,46.112 0,31.241 26.117,57.358 57.358,57.358 H 539.343 V 422.19 H 187.57 c -16.995,0 -31.241,-14.371 -31.241,-31.241 0.001,-17.12 14.371,-31.491 31.241,-31.491 z M 578.457,156.267 528.971,333.466 H 177.198 L 131.586,156.268 Z"
         inkscape:connector-curvature="0"
         style="fill:#ffffff;stroke-width:0.8597"
         sodipodi:nodetypes="sccccsccsccssccscsccccc" /><path
         id="path3094"
         d="m 424.751,487.171 c -29.991,0 -54.734,24.743 -54.734,54.734 0,29.991 24.743,54.734 54.734,54.734 31.241,0 54.734,-24.743 54.734,-54.734 10e-4,-29.991 -24.742,-54.734 -54.734,-54.734 z m 0,84.725 c -16.995,0 -29.991,-14.371 -29.991,-29.991 0,-16.995 14.371,-29.991 29.991,-29.991 16.995,0 29.991,12.996 29.991,29.991 10e-4,16.995 -14.37,29.991 -29.991,29.991 z"
         inkscape:connector-curvature="0"
         style="fill:#ffffff;stroke-width:0.8597" /><path
         id="path3096"
         d="m 224.06,487.171 c -29.991,0 -54.734,24.743 -54.734,54.734 0,29.991 24.743,54.734 54.734,54.734 29.991,0 54.734,-24.743 54.734,-54.734 0,-29.991 -24.743,-54.734 -54.734,-54.734 z m 0,84.725 c -16.995,0 -29.991,-14.371 -29.991,-29.991 0,-16.995 14.371,-29.991 29.991,-29.991 15.62,0 29.991,12.996 29.991,29.991 0,16.995 -14.371,29.991 -29.991,29.991 z"
         inkscape:connector-curvature="0"
         style="fill:#ffffff;stroke-width:0.8597" /></g></g><ellipse
     style="fill:#c42d3f;fill-opacity:1;stroke:#ffffff;stroke-width:0;stroke-dasharray:none;stroke-opacity:1"
     id="path3"
     cx="52.132492"
     cy="51.555908"
     rx="7.8751812"
     ry="7.6965165" /><rect
     style="fill:none;stroke:#ffffff;stroke-width:1.60101;stroke-dasharray:none;stroke-opacity:1"
     id="rect1"
     width="27.699621"
     height="6.1630878"
     x="41.972191"
     y="40.165127"
     rx="1.1006432"
     ry="1.1006432" /><path
     style="fill:#ffffff;stroke:none;stroke-width:0.533668"
     d="m 49.469407,51.55153 h -0.02503 c -0.09096,-0.195329 -0.283743,-0.364491 -0.426526,-0.525333 -0.297734,-0.33539 -0.556345,-0.717555 -0.999376,-0.866652 -0.760511,-0.255948 -1.618468,0.243924 -1.673815,1.066778 -0.04136,0.614839 0.378622,1.176771 0.678186,1.676056 0.670433,1.117412 1.446696,2.170048 2.09256,3.302071 0.202313,0.354602 0.384497,0.727903 0.550634,1.100692 0.08166,0.18323 0.169615,0.438377 0.353795,0.539909 0.246026,0.135626 0.652367,0.06047 0.925484,0.06047 h 2.176365 2.176372 c 0.266867,0 0.643812,0.07251 0.822816,-0.177444 0.126806,-0.177066 0.171809,-0.441152 0.231378,-0.648072 0.105684,-0.367121 0.221174,-0.73119 0.318775,-1.100692 0.217882,-0.824844 0.442919,-1.649763 0.523978,-2.501573 0.07322,-0.769348 0.0043,-1.578369 0.0043,-2.351479 0,-0.771856 0.04739,-1.621495 -0.800504,-1.979351 -0.13101,-0.05529 -0.283197,-0.08969 -0.425291,-0.09597 -0.212588,-0.0094 -0.397915,0.04493 -0.600378,0.09907 -0.09633,-0.499578 -0.725118,-0.834072 -1.200756,-0.822293 -0.137975,0.0031 -0.424624,0.142548 -0.540868,0.0909 -0.138455,-0.06152 -0.256224,-0.307084 -0.38471,-0.406079 -0.352222,-0.271393 -0.78617,-0.268751 -1.200756,-0.188353 0,-0.647981 0.167615,-1.553885 -0.186805,-2.126338 -0.535735,-0.865301 -1.880164,-0.756836 -2.279023,0.17511 -0.231436,0.540768 -0.110795,1.273884 -0.110795,1.851164 v 3.82741 m 1.025623,5.478445 C 50.342691,56.50101 49.986708,55.949239 49.704568,55.478997 49.118817,54.502723 48.45851,53.573068 47.863693,52.60219 c -0.206978,-0.337839 -0.477874,-0.697035 -0.60192,-1.075679 -0.05337,-0.162822 -0.07072,-0.364276 0.08402,-0.478946 0.280513,-0.207864 0.546061,0.0237 0.726633,0.228789 0.446728,0.507417 0.894429,1.014371 1.336376,1.525962 0.237905,0.275389 0.683193,0.569463 0.897823,0.07505 0.06824,-0.157198 0.03838,-0.35783 0.03838,-0.525328 v -1.025647 -3.677316 c 0,-0.418818 -0.08555,-0.943948 0.01335,-1.350849 0.03832,-0.157606 0.177055,-0.288863 0.336884,-0.31694 0.602619,-0.105858 0.500315,0.734632 0.500315,1.092431 v 2.926837 c 0,0.330224 -0.07648,0.846021 0.375233,0.912884 0.326744,0.04835 0.4752,-0.268964 0.475302,-0.537645 1.64e-4,-0.432998 -0.06497,-0.925152 0.01547,-1.350849 0.04771,-0.25249 0.226372,-0.398006 0.484834,-0.372613 0.361565,0.03554 0.35022,0.427105 0.35022,0.697814 0,0.562205 -0.06503,1.168506 0.0048,1.726088 0.02439,0.194981 0.17143,0.371626 0.370607,0.402451 0.322138,0.04984 0.498922,-0.247073 0.500293,-0.527526 0.0022,-0.442849 -0.09121,-0.995715 0.01333,-1.4259 0.04265,-0.175577 0.208729,-0.302233 0.3869,-0.315419 0.413556,-0.03058 0.425271,0.400043 0.425271,0.690652 0,0.541461 -0.01313,1.084751 3.67e-4,1.626026 0.0053,0.212149 0.10576,0.440325 0.324833,0.509001 0.228342,0.07158 0.480959,-0.07826 0.537011,-0.308876 0.108188,-0.44509 -0.04606,-0.947838 0.02087,-1.40088 0.04429,-0.299655 0.364244,-0.51958 0.642787,-0.332636 0.199567,0.13394 0.200222,0.341835 0.200222,0.55778 v 1.075674 c 0,0.60066 0.05262,1.228361 -0.0043,1.82615 -0.07188,0.755302 -0.280778,1.4951 -0.473951,2.226398 -0.0842,0.318749 -0.180999,0.633876 -0.272277,0.950597 -0.02972,0.103224 -0.05165,0.306311 -0.142639,0.374541 -0.08041,0.0603 -0.2623,0.02572 -0.357677,0.02572 h -0.950597 z"
     id="path1" /><path
     style="fill:none;stroke:#ffffff;stroke-width:0.800505;stroke-linecap:butt;stroke-linejoin:miter;stroke-dasharray:none;stroke-opacity:1"
     d="m 64.665202,42.499079 1.246763,1.438643 1.333686,-1.416783"
     id="path2"
     sodipodi:nodetypes="ccc" /><circle
     style="opacity:1;fill:none;fill-opacity:1;stroke:#ffffff;stroke-width:1.85758;stroke-dasharray:none;stroke-dashoffset:236.062;stroke-opacity:1"
     id="path4"
     cx="81.245102"
     cy="22.782721"
     r="11.361248" /><path
     style="fill:#ffffff;fill-opacity:1;stroke:#ffffff;stroke-width:1.98432;stroke-linecap:round;stroke-linejoin:miter;stroke-dasharray:none;stroke-opacity:1"
     d="m 81.20711,17.74545 0.07597,10.074544"
     id="path5" /><path
     style="fill:#ffffff;fill-opacity:1;stroke:#ffffff;stroke-width:1.98432;stroke-linecap:round;stroke-linejoin:miter;stroke-dasharray:none;stroke-opacity:1"
     d="m 86.282369,22.744735 -10.074544,0.07597"
     id="path5-3" /></svg>
